<svg xmlns="http://www.w3.org/2000/svg" width="132" height="35" viewBox="0 0 132 35">
    <g fill="#EF4937" fill-rule="nonzero">
        <path d="M66 .92H48.4s-10.91 0-10.91 12.72c0 7.17 3.46 10.3 6.48 11.66l-5.76 7.41a.57.57 0 0 0 .45.92h9.98c.35 0 .69-.16.9-.44l5.31-6.83h2.63v6.7c0 .32.26.57.57.57H66c.32 0 .57-.26.57-.57V1.5A.566.566 0 0 0 66 .92zm-8.51 15.22c0 .63-.51 1.15-1.15 1.15h-6.8c-.63 0-1.15-.51-1.15-1.15v-4.98c0-.63.51-1.15 1.15-1.15h6.8c.63 0 1.15.51 1.15 1.15v4.98zM32.87.92h-7.94a.57.57 0 0 0-.57.57v2.85C21.87.92 19.05.51 16.26.51 5.35.51.72 8.19.72 17.27c0 9.04 4.63 16.76 15.54 16.76 2.78 0 5.27-.4 8.1-3.83v2.85c0 .32.26.57.57.57h7.94c.32 0 .57-.26.57-.57V1.5c0-.32-.25-.58-.57-.58zM24.14 17.6l-3.08 4.63c-.21.32-.57.51-.95.51h-7.33c-.63 0-1.15-.51-1.15-1.15v-8.62c0-.63.51-1.15 1.15-1.15h7.33c.38 0 .74.19.95.51l3.08 4.63c.13.2.13.45 0 .64zM89.38 17.28l12.01-15.44a.57.57 0 0 0-.45-.92h-9.98c-.35 0-.69.16-.9.44l-6.91 8.89c-.33.43-1.02.19-1.02-.35V1.5a.57.57 0 0 0-.57-.57h-8.92a.57.57 0 0 0-.57.57v31.58c0 .32.26.57.57.57h8.92c.32 0 .57-.26.57-.57v-8.41c0-.55.69-.78 1.02-.35l6.91 8.89c.22.28.55.44.9.44h9.98c.48 0 .74-.55.45-.92L89.38 17.28z"/>
        <path d="M131.47 20.82l-9.02-.91a.594.594 0 0 0-.55.26l-1.35 2.02c-.23.35-.62.56-1.04.56h-7.79c-.63 0-1.15-.51-1.15-1.15v-8.62c0-.63.51-1.15 1.15-1.15h7.79c.42 0 .81.21 1.04.56l1.35 2.02c.12.18.33.28.55.26l9.02-.91c.34-.04.57-.36.5-.69C130.5 6.05 125.19.53 116.04.53c-10.91 0-16.36 7.68-16.36 16.76 0 9.09 5.45 16.76 16.36 16.76 9.15 0 14.46-5.53 15.93-12.54.06-.34-.17-.66-.5-.69z"/>
    </g>
</svg>
